<svg xmlns="http://www.w3.org/2000/svg" version="1.1" xmlns:xlink="http://www.w3.org/1999/xlink" xmlns:svgjs="http://svgjs.com/svgjs" width="1440" height="560" preserveAspectRatio="none" viewBox="0 0 1440 560">
    <g mask="url(&quot;#SvgjsMask1038&quot;)" fill="none">
        <path d="M-66.88 390.09L-66.88 390.09" stroke="#132e65" stroke-width="1.5"></path>
        <path d="M-66.88 390.09L-64.79 548.31" stroke="#132e65" stroke-width="1.5"></path>
        <path d="M-66.88 390.09L103.57 411.41" stroke="#132e65" stroke-width="1.5"></path>
        <path d="M-64.79 548.31L-64.79 548.31" stroke="#132e65" stroke-width="1.5"></path>
        <path d="M-64.79 548.31L-57.57 651.06" stroke="#132e65" stroke-width="1.5"></path>
        <path d="M-64.79 548.31L88.62 526" stroke="#132e65" stroke-width="1.5"></path>
        <path d="M-57.57 651.06L-57.57 651.06" stroke="#132e65" stroke-width="1.5"></path>
        <path d="M-57.57 651.06L41.46 709.03" stroke="#132e65" stroke-width="1.5"></path>
        <path d="M-57.57 651.06L88.62 526" stroke="#132e65" stroke-width="1.5"></path>
        <path d="M-57.57 651.06L189.94 691.33" stroke="#132e65" stroke-width="1.5"></path>
        <path d="M-57.57 651.06L-66.88 390.09" stroke="#132e65" stroke-width="1.5"></path>
        <path d="M103.57 411.41L103.57 411.41" stroke="#132e65" stroke-width="1.5"></path>
        <path d="M103.57 411.41L88.62 526" stroke="#132e65" stroke-width="1.5"></path>
        <path d="M103.57 411.41L226.11 404.19" stroke="#132e65" stroke-width="1.5"></path>
        <path d="M88.62 526L88.62 526" stroke="#132e65" stroke-width="1.5"></path>
        <path d="M88.62 526L214.03 503.45" stroke="#132e65" stroke-width="1.5"></path>
        <path d="M88.62 526L226.11 404.19" stroke="#132e65" stroke-width="1.5"></path>
        <path d="M88.62 526L41.46 709.03" stroke="#132e65" stroke-width="1.5"></path>
        <path d="M41.46 709.03L41.46 709.03" stroke="#132e65" stroke-width="1.5"></path>
        <path d="M41.46 709.03L189.94 691.33" stroke="#132e65" stroke-width="1.5"></path>
        <path d="M226.11 404.19L226.11 404.19" stroke="#132e65" stroke-width="1.5"></path>
        <path d="M226.11 404.19L214.03 503.45" stroke="#132e65" stroke-width="1.5"></path>
        <path d="M214.03 503.45L214.03 503.45" stroke="#132e65" stroke-width="1.5"></path>
        <path d="M214.03 503.45L103.57 411.41" stroke="#132e65" stroke-width="1.5"></path>
        <path d="M214.03 503.45L391.11 516.4" stroke="#132e65" stroke-width="1.5"></path>
        <path d="M214.03 503.45L364.71 406.17" stroke="#132e65" stroke-width="1.5"></path>
        <path d="M189.94 691.33L189.94 691.33" stroke="#132e65" stroke-width="1.5"></path>
        <path d="M189.94 691.33L214.03 503.45" stroke="#132e65" stroke-width="1.5"></path>
        <path d="M189.94 691.33L88.62 526" stroke="#132e65" stroke-width="1.5"></path>
        <path d="M189.94 691.33L397.51 687.81" stroke="#132e65" stroke-width="1.5"></path>
        <path d="M364.71 406.17L364.71 406.17" stroke="#132e65" stroke-width="1.5"></path>
        <path d="M364.71 406.17L391.11 516.4" stroke="#132e65" stroke-width="1.5"></path>
        <path d="M364.71 406.17L226.11 404.19" stroke="#132e65" stroke-width="1.5"></path>
        <path d="M364.71 406.17L516.41 367.42" stroke="#132e65" stroke-width="1.5"></path>
        <path d="M364.71 406.17L103.57 411.41" stroke="#132e65" stroke-width="1.5"></path>
        <path d="M391.11 516.4L391.11 516.4" stroke="#132e65" stroke-width="1.5"></path>
        <path d="M391.11 516.4L397.51 687.81" stroke="#132e65" stroke-width="1.5"></path>
        <path d="M391.11 516.4L516.41 367.42" stroke="#132e65" stroke-width="1.5"></path>
        <path d="M391.11 516.4L226.11 404.19" stroke="#132e65" stroke-width="1.5"></path>
        <path d="M397.51 687.81L397.51 687.81" stroke="#132e65" stroke-width="1.5"></path>
        <path d="M397.51 687.81L514.58 677.82" stroke="#132e65" stroke-width="1.5"></path>
        <path d="M397.51 687.81L214.03 503.45" stroke="#132e65" stroke-width="1.5"></path>
        <path d="M516.41 367.42L516.41 367.42" stroke="#132e65" stroke-width="1.5"></path>
        <path d="M516.41 367.42L663.59 410.43" stroke="#132e65" stroke-width="1.5"></path>
        <path d="M516.41 367.42L794.69 346.43" stroke="#132e65" stroke-width="1.5"></path>
        <path d="M514.58 677.82L514.58 677.82" stroke="#132e65" stroke-width="1.5"></path>
        <path d="M514.58 677.82L697.73 646.77" stroke="#132e65" stroke-width="1.5"></path>
        <path d="M514.58 677.82L391.11 516.4" stroke="#132e65" stroke-width="1.5"></path>
        <path d="M514.58 677.82L663.59 410.43" stroke="#132e65" stroke-width="1.5"></path>
        <path d="M514.58 677.82L364.71 406.17" stroke="#132e65" stroke-width="1.5"></path>
        <path d="M514.58 677.82L516.41 367.42" stroke="#132e65" stroke-width="1.5"></path>
        <path d="M663.59 410.43L663.59 410.43" stroke="#132e65" stroke-width="1.5"></path>
        <path d="M663.59 410.43L794.69 346.43" stroke="#132e65" stroke-width="1.5"></path>
        <path d="M663.59 410.43L800.03 493.54" stroke="#132e65" stroke-width="1.5"></path>
        <path d="M663.59 410.43L697.73 646.77" stroke="#132e65" stroke-width="1.5"></path>
        <path d="M663.59 410.43L848.71 241" stroke="#132e65" stroke-width="1.5"></path>
        <path d="M663.59 410.43L391.11 516.4" stroke="#132e65" stroke-width="1.5"></path>
        <path d="M697.73 646.77L697.73 646.77" stroke="#132e65" stroke-width="1.5"></path>
        <path d="M697.73 646.77L858.77 641.2" stroke="#132e65" stroke-width="1.5"></path>
        <path d="M697.73 646.77L800.03 493.54" stroke="#132e65" stroke-width="1.5"></path>
        <path d="M851.31 106.95L851.31 106.95" stroke="#132e65" stroke-width="1.5"></path>
        <path d="M851.31 106.95L950.5 108.27" stroke="#132e65" stroke-width="1.5"></path>
        <path d="M851.31 106.95L848.71 241" stroke="#132e65" stroke-width="1.5"></path>
        <path d="M848.71 241L848.71 241" stroke="#132e65" stroke-width="1.5"></path>
        <path d="M848.71 241L794.69 346.43" stroke="#132e65" stroke-width="1.5"></path>
        <path d="M848.71 241L984.26 223.03" stroke="#132e65" stroke-width="1.5"></path>
        <path d="M848.71 241L950.5 108.27" stroke="#132e65" stroke-width="1.5"></path>
        <path d="M794.69 346.43L794.69 346.43" stroke="#132e65" stroke-width="1.5"></path>
        <path d="M794.69 346.43L800.03 493.54" stroke="#132e65" stroke-width="1.5"></path>
        <path d="M794.69 346.43L975.58 386.76" stroke="#132e65" stroke-width="1.5"></path>
        <path d="M800.03 493.54L800.03 493.54" stroke="#132e65" stroke-width="1.5"></path>
        <path d="M800.03 493.54L858.77 641.2" stroke="#132e65" stroke-width="1.5"></path>
        <path d="M800.03 493.54L981.32 506.56" stroke="#132e65" stroke-width="1.5"></path>
        <path d="M858.77 641.2L858.77 641.2" stroke="#132e65" stroke-width="1.5"></path>
        <path d="M858.77 641.2L993.71 659.14" stroke="#132e65" stroke-width="1.5"></path>
        <path d="M946.71 -69.75L946.71 -69.75" stroke="#132e65" stroke-width="1.5"></path>
        <path d="M946.71 -69.75L1097.4 -50.6" stroke="#132e65" stroke-width="1.5"></path>
        <path d="M946.71 -69.75L950.5 108.27" stroke="#132e65" stroke-width="1.5"></path>
        <path d="M946.71 -69.75L851.31 106.95" stroke="#132e65" stroke-width="1.5"></path>
        <path d="M946.71 -69.75L1097.18 80.94" stroke="#132e65" stroke-width="1.5"></path>
        <path d="M946.71 -69.75L984.26 223.03" stroke="#132e65" stroke-width="1.5"></path>
        <path d="M946.71 -69.75L848.71 241" stroke="#132e65" stroke-width="1.5"></path>
        <path d="M950.5 108.27L950.5 108.27" stroke="#132e65" stroke-width="1.5"></path>
        <path d="M950.5 108.27L984.26 223.03" stroke="#132e65" stroke-width="1.5"></path>
        <path d="M950.5 108.27L1097.18 80.94" stroke="#132e65" stroke-width="1.5"></path>
        <path d="M984.26 223.03L984.26 223.03" stroke="#132e65" stroke-width="1.5"></path>
        <path d="M984.26 223.03L975.58 386.76" stroke="#132e65" stroke-width="1.5"></path>
        <path d="M984.26 223.03L851.31 106.95" stroke="#132e65" stroke-width="1.5"></path>
        <path d="M984.26 223.03L1162.16 248.16" stroke="#132e65" stroke-width="1.5"></path>
        <path d="M984.26 223.03L1097.18 80.94" stroke="#132e65" stroke-width="1.5"></path>
        <path d="M975.58 386.76L975.58 386.76" stroke="#132e65" stroke-width="1.5"></path>
        <path d="M975.58 386.76L981.32 506.56" stroke="#132e65" stroke-width="1.5"></path>
        <path d="M975.58 386.76L1101.98 381.61" stroke="#132e65" stroke-width="1.5"></path>
        <path d="M981.32 506.56L981.32 506.56" stroke="#132e65" stroke-width="1.5"></path>
        <path d="M993.71 659.14L993.71 659.14" stroke="#132e65" stroke-width="1.5"></path>
        <path d="M993.71 659.14L1138.65 682.83" stroke="#132e65" stroke-width="1.5"></path>
        <path d="M993.71 659.14L981.32 506.56" stroke="#132e65" stroke-width="1.5"></path>
        <path d="M993.71 659.14L1125.34 506.6" stroke="#132e65" stroke-width="1.5"></path>
        <path d="M1097.4 -50.6L1097.4 -50.6" stroke="#132e65" stroke-width="1.5"></path>
        <path d="M1097.4 -50.6L1097.18 80.94" stroke="#132e65" stroke-width="1.5"></path>
        <path d="M1097.4 -50.6L950.5 108.27" stroke="#132e65" stroke-width="1.5"></path>
        <path d="M1097.4 -50.6L1309.84 -101.88" stroke="#132e65" stroke-width="1.5"></path>
        <path d="M1097.4 -50.6L1307.17 81.44" stroke="#132e65" stroke-width="1.5"></path>
        <path d="M1097.4 -50.6L851.31 106.95" stroke="#132e65" stroke-width="1.5"></path>
        <path d="M1097.18 80.94L1097.18 80.94" stroke="#132e65" stroke-width="1.5"></path>
        <path d="M1162.16 248.16L1162.16 248.16" stroke="#132e65" stroke-width="1.5"></path>
        <path d="M1162.16 248.16L1281.3 250.43" stroke="#132e65" stroke-width="1.5"></path>
        <path d="M1162.16 248.16L1101.98 381.61" stroke="#132e65" stroke-width="1.5"></path>
        <path d="M1162.16 248.16L1250.15 399.98" stroke="#132e65" stroke-width="1.5"></path>
        <path d="M1101.98 381.61L1101.98 381.61" stroke="#132e65" stroke-width="1.5"></path>
        <path d="M1101.98 381.61L1125.34 506.6" stroke="#132e65" stroke-width="1.5"></path>
        <path d="M1101.98 381.61L1250.15 399.98" stroke="#132e65" stroke-width="1.5"></path>
        <path d="M1125.34 506.6L1125.34 506.6" stroke="#132e65" stroke-width="1.5"></path>
        <path d="M1125.34 506.6L981.32 506.56" stroke="#132e65" stroke-width="1.5"></path>
        <path d="M1125.34 506.6L1250.15 399.98" stroke="#132e65" stroke-width="1.5"></path>
        <path d="M1125.34 506.6L1138.65 682.83" stroke="#132e65" stroke-width="1.5"></path>
        <path d="M1125.34 506.6L1307.59 517.41" stroke="#132e65" stroke-width="1.5"></path>
        <path d="M1125.34 506.6L975.58 386.76" stroke="#132e65" stroke-width="1.5"></path>
        <path d="M1138.65 682.83L1138.65 682.83" stroke="#132e65" stroke-width="1.5"></path>
        <path d="M1138.65 682.83L1240.3 668.48" stroke="#132e65" stroke-width="1.5"></path>
        <path d="M1138.65 682.83L981.32 506.56" stroke="#132e65" stroke-width="1.5"></path>
        <path d="M1309.84 -101.88L1309.84 -101.88" stroke="#132e65" stroke-width="1.5"></path>
        <path d="M1309.84 -101.88L1445.12 -51.7" stroke="#132e65" stroke-width="1.5"></path>
        <path d="M1309.84 -101.88L1307.17 81.44" stroke="#132e65" stroke-width="1.5"></path>
        <path d="M1307.17 81.44L1307.17 81.44" stroke="#132e65" stroke-width="1.5"></path>
        <path d="M1307.17 81.44L1431.52 107.17" stroke="#132e65" stroke-width="1.5"></path>
        <path d="M1307.17 81.44L1281.3 250.43" stroke="#132e65" stroke-width="1.5"></path>
        <path d="M1307.17 81.44L1445.12 -51.7" stroke="#132e65" stroke-width="1.5"></path>
        <path d="M1307.17 81.44L1097.18 80.94" stroke="#132e65" stroke-width="1.5"></path>
        <path d="M1307.17 81.44L1162.16 248.16" stroke="#132e65" stroke-width="1.5"></path>
        <path d="M1281.3 250.43L1281.3 250.43" stroke="#132e65" stroke-width="1.5"></path>
        <path d="M1281.3 250.43L1250.15 399.98" stroke="#132e65" stroke-width="1.5"></path>
        <path d="M1281.3 250.43L1431.52 107.17" stroke="#132e65" stroke-width="1.5"></path>
        <path d="M1281.3 250.43L1426.48 400.6" stroke="#132e65" stroke-width="1.5"></path>
        <path d="M1281.3 250.43L1101.98 381.61" stroke="#132e65" stroke-width="1.5"></path>
        <path d="M1250.15 399.98L1250.15 399.98" stroke="#132e65" stroke-width="1.5"></path>
        <path d="M1250.15 399.98L1307.59 517.41" stroke="#132e65" stroke-width="1.5"></path>
        <path d="M1307.59 517.41L1307.59 517.41" stroke="#132e65" stroke-width="1.5"></path>
        <path d="M1307.59 517.41L1418.1 543.05" stroke="#132e65" stroke-width="1.5"></path>
        <path d="M1307.59 517.41L1240.3 668.48" stroke="#132e65" stroke-width="1.5"></path>
        <path d="M1307.59 517.41L1426.48 400.6" stroke="#132e65" stroke-width="1.5"></path>
        <path d="M1307.59 517.41L1397.63 662.81" stroke="#132e65" stroke-width="1.5"></path>
        <path d="M1240.3 668.48L1240.3 668.48" stroke="#132e65" stroke-width="1.5"></path>
        <path d="M1240.3 668.48L1397.63 662.81" stroke="#132e65" stroke-width="1.5"></path>
        <path d="M1240.3 668.48L1125.34 506.6" stroke="#132e65" stroke-width="1.5"></path>
        <path d="M1240.3 668.48L1418.1 543.05" stroke="#132e65" stroke-width="1.5"></path>
        <path d="M1240.3 668.48L993.71 659.14" stroke="#132e65" stroke-width="1.5"></path>
        <path d="M1445.12 -51.7L1445.12 -51.7" stroke="#132e65" stroke-width="1.5"></path>
        <path d="M1445.12 -51.7L1573.13 -84.75" stroke="#132e65" stroke-width="1.5"></path>
        <path d="M1445.12 -51.7L1431.52 107.17" stroke="#132e65" stroke-width="1.5"></path>
        <path d="M1445.12 -51.7L1588.42 59.83" stroke="#132e65" stroke-width="1.5"></path>
        <path d="M1445.12 -51.7L1574.93 226.63" stroke="#132e65" stroke-width="1.5"></path>
        <path d="M1431.52 107.17L1431.52 107.17" stroke="#132e65" stroke-width="1.5"></path>
        <path d="M1431.52 107.17L1588.42 59.83" stroke="#132e65" stroke-width="1.5"></path>
        <path d="M1431.52 107.17L1574.93 226.63" stroke="#132e65" stroke-width="1.5"></path>
        <path d="M1426.48 400.6L1426.48 400.6" stroke="#132e65" stroke-width="1.5"></path>
        <path d="M1426.48 400.6L1540.91 389.42" stroke="#132e65" stroke-width="1.5"></path>
        <path d="M1426.48 400.6L1418.1 543.05" stroke="#132e65" stroke-width="1.5"></path>
        <path d="M1426.48 400.6L1555.64 511.18" stroke="#132e65" stroke-width="1.5"></path>
        <path d="M1426.48 400.6L1250.15 399.98" stroke="#132e65" stroke-width="1.5"></path>
        <path d="M1418.1 543.05L1418.1 543.05" stroke="#132e65" stroke-width="1.5"></path>
        <path d="M1418.1 543.05L1397.63 662.81" stroke="#132e65" stroke-width="1.5"></path>
        <path d="M1418.1 543.05L1555.64 511.18" stroke="#132e65" stroke-width="1.5"></path>
        <path d="M1397.63 662.81L1397.63 662.81" stroke="#132e65" stroke-width="1.5"></path>
        <path d="M1397.63 662.81L1551.78 686.62" stroke="#132e65" stroke-width="1.5"></path>
        <path d="M1573.13 -84.75L1573.13 -84.75" stroke="#132e65" stroke-width="1.5"></path>
        <path d="M1573.13 -84.75L1588.42 59.83" stroke="#132e65" stroke-width="1.5"></path>
        <path d="M1573.13 -84.75L1431.52 107.17" stroke="#132e65" stroke-width="1.5"></path>
        <path d="M1573.13 -84.75L1309.84 -101.88" stroke="#132e65" stroke-width="1.5"></path>
        <path d="M1573.13 -84.75L1574.93 226.63" stroke="#132e65" stroke-width="1.5"></path>
        <path d="M1573.13 -84.75L1307.17 81.44" stroke="#132e65" stroke-width="1.5"></path>
        <path d="M1588.42 59.83L1588.42 59.83" stroke="#132e65" stroke-width="1.5"></path>
        <path d="M1574.93 226.63L1574.93 226.63" stroke="#132e65" stroke-width="1.5"></path>
        <path d="M1574.93 226.63L1540.91 389.42" stroke="#132e65" stroke-width="1.5"></path>
        <path d="M1574.93 226.63L1588.42 59.83" stroke="#132e65" stroke-width="1.5"></path>
        <path d="M1540.91 389.42L1540.91 389.42" stroke="#132e65" stroke-width="1.5"></path>
        <path d="M1540.91 389.42L1555.64 511.18" stroke="#132e65" stroke-width="1.5"></path>
        <path d="M1540.91 389.42L1418.1 543.05" stroke="#132e65" stroke-width="1.5"></path>
        <path d="M1540.91 389.42L1307.59 517.41" stroke="#132e65" stroke-width="1.5"></path>
        <path d="M1555.64 511.18L1555.64 511.18" stroke="#132e65" stroke-width="1.5"></path>
        <path d="M1555.64 511.18L1551.78 686.62" stroke="#132e65" stroke-width="1.5"></path>
        <path d="M1555.64 511.18L1397.63 662.81" stroke="#132e65" stroke-width="1.5"></path>
        <path d="M1551.78 686.62L1551.78 686.62" stroke="#132e65" stroke-width="1.5"></path>
        <path d="M1551.78 686.62L1418.1 543.05" stroke="#132e65" stroke-width="1.5"></path>
        <path d="M1551.78 686.62L1307.59 517.41" stroke="#132e65" stroke-width="1.5"></path>
        <circle r="5" cx="-66.88" cy="390.09" fill="#132e65"></circle>
        <circle r="5" cx="-64.79" cy="548.31" fill="#132e65"></circle>
        <circle r="5" cx="-57.57" cy="651.06" fill="#132e65"></circle>
        <circle r="5" cx="103.57" cy="411.41" fill="#132e65"></circle>
        <circle r="5" cx="88.62" cy="526" fill="#132e65"></circle>
        <circle r="5" cx="41.46" cy="709.03" fill="#132e65"></circle>
        <circle r="5" cx="226.11" cy="404.19" fill="#132e65"></circle>
        <circle r="5" cx="214.03" cy="503.45" fill="#132e65"></circle>
        <circle r="5" cx="189.94" cy="691.33" fill="#132e65"></circle>
        <circle r="5" cx="364.71" cy="406.17" fill="#132e65"></circle>
        <circle r="5" cx="391.11" cy="516.4" fill="#132e65"></circle>
        <circle r="5" cx="397.51" cy="687.81" fill="#132e65"></circle>
        <circle r="5" cx="516.41" cy="367.42" fill="#132e65"></circle>
        <circle r="5" cx="514.58" cy="677.82" fill="#132e65"></circle>
        <circle r="5" cx="663.59" cy="410.43" fill="#132e65"></circle>
        <circle r="5" cx="697.73" cy="646.77" fill="#132e65"></circle>
        <circle r="5" cx="851.31" cy="106.95" fill="#132e65"></circle>
        <circle r="5" cx="848.71" cy="241" fill="#132e65"></circle>
        <circle r="5" cx="794.69" cy="346.43" fill="#132e65"></circle>
        <circle r="5" cx="800.03" cy="493.54" fill="#132e65"></circle>
        <circle r="5" cx="858.77" cy="641.2" fill="#132e65"></circle>
        <circle r="5" cx="946.71" cy="-69.75" fill="#132e65"></circle>
        <circle r="5" cx="950.5" cy="108.27" fill="#132e65"></circle>
        <circle r="5" cx="984.26" cy="223.03" fill="#132e65"></circle>
        <circle r="5" cx="975.58" cy="386.76" fill="#132e65"></circle>
        <circle r="5" cx="981.32" cy="506.56" fill="#132e65"></circle>
        <circle r="5" cx="993.71" cy="659.14" fill="#132e65"></circle>
        <circle r="5" cx="1097.4" cy="-50.6" fill="#132e65"></circle>
        <circle r="5" cx="1097.18" cy="80.94" fill="#132e65"></circle>
        <circle r="5" cx="1162.16" cy="248.16" fill="#132e65"></circle>
        <circle r="5" cx="1101.98" cy="381.61" fill="#132e65"></circle>
        <circle r="5" cx="1125.34" cy="506.6" fill="#132e65"></circle>
        <circle r="5" cx="1138.65" cy="682.83" fill="#132e65"></circle>
        <circle r="5" cx="1309.84" cy="-101.88" fill="#132e65"></circle>
        <circle r="5" cx="1307.17" cy="81.44" fill="#132e65"></circle>
        <circle r="5" cx="1281.3" cy="250.43" fill="#132e65"></circle>
        <circle r="5" cx="1250.15" cy="399.98" fill="#132e65"></circle>
        <circle r="5" cx="1307.59" cy="517.41" fill="#132e65"></circle>
        <circle r="5" cx="1240.3" cy="668.48" fill="#132e65"></circle>
        <circle r="5" cx="1445.12" cy="-51.7" fill="#132e65"></circle>
        <circle r="5" cx="1431.52" cy="107.17" fill="#132e65"></circle>
        <circle r="5" cx="1426.48" cy="400.6" fill="#132e65"></circle>
        <circle r="5" cx="1418.1" cy="543.05" fill="#132e65"></circle>
        <circle r="5" cx="1397.63" cy="662.81" fill="#132e65"></circle>
        <circle r="5" cx="1573.13" cy="-84.75" fill="#132e65"></circle>
        <circle r="5" cx="1588.42" cy="59.83" fill="#132e65"></circle>
        <circle r="5" cx="1574.93" cy="226.63" fill="#132e65"></circle>
        <circle r="5" cx="1540.91" cy="389.42" fill="#132e65"></circle>
        <circle r="5" cx="1555.64" cy="511.18" fill="#132e65"></circle>
        <circle r="5" cx="1551.78" cy="686.62" fill="#132e65"></circle>
        <path d="M62.82 672.93L62.82 672.93" stroke="hsl(228.5, 77.2%, 51.5%)" stroke-width="1.5"></path>
        <path d="M62.82 672.93L198.97 685.27" stroke="hsl(228.5, 77.2%, 51.5%)" stroke-width="1.5"></path>
        <path d="M62.82 672.93L59.47 519.91" stroke="hsl(228.5, 77.2%, 51.5%)" stroke-width="1.5"></path>
        <path d="M409.77 660.9L409.77 660.9" stroke="hsl(228.5, 77.2%, 51.5%)" stroke-width="1.5"></path>
        <path d="M409.77 660.9L534.83 657.07" stroke="hsl(228.5, 77.2%, 51.5%)" stroke-width="1.5"></path>
        <path d="M409.77 660.9L382.02 535.46" stroke="hsl(228.5, 77.2%, 51.5%)" stroke-width="1.5"></path>
        <path d="M409.77 660.9L524.7 537.79" stroke="hsl(228.5, 77.2%, 51.5%)" stroke-width="1.5"></path>
        <path d="M409.77 660.9L198.97 685.27" stroke="hsl(228.5, 77.2%, 51.5%)" stroke-width="1.5"></path>
        <path d="M409.77 660.9L221.49 562" stroke="hsl(228.5, 77.2%, 51.5%)" stroke-width="1.5"></path>
        <path d="M523.72 411.76L523.72 411.76" stroke="hsl(228.5, 77.2%, 51.5%)" stroke-width="1.5"></path>
        <path d="M523.72 411.76L524.7 537.79" stroke="hsl(228.5, 77.2%, 51.5%)" stroke-width="1.5"></path>
        <path d="M523.72 411.76L382.02 535.46" stroke="hsl(228.5, 77.2%, 51.5%)" stroke-width="1.5"></path>
        <path d="M523.72 411.76L534.83 657.07" stroke="hsl(228.5, 77.2%, 51.5%)" stroke-width="1.5"></path>
        <path d="M984.47 387.57L984.47 387.57" stroke="hsl(228.5, 77.2%, 51.5%)" stroke-width="1.5"></path>
        <path d="M984.47 387.57L1012.24 503.67" stroke="hsl(228.5, 77.2%, 51.5%)" stroke-width="1.5"></path>
        <path d="M984.47 387.57L1120.65 371" stroke="hsl(228.5, 77.2%, 51.5%)" stroke-width="1.5"></path>
        <path d="M984.47 387.57L802.04 391.61" stroke="hsl(228.5, 77.2%, 51.5%)" stroke-width="1.5"></path>
        <path d="M1148.72 229.43L1148.72 229.43" stroke="hsl(228.5, 77.2%, 51.5%)" stroke-width="1.5"></path>
        <path d="M1148.72 229.43L1120.65 371" stroke="hsl(228.5, 77.2%, 51.5%)" stroke-width="1.5"></path>
        <path d="M1148.72 229.43L1241.46 345.64" stroke="hsl(228.5, 77.2%, 51.5%)" stroke-width="1.5"></path>
        <path d="M1148.72 229.43L1264.72 83.75" stroke="hsl(228.5, 77.2%, 51.5%)" stroke-width="1.5"></path>
        <path d="M1148.72 229.43L984.47 387.57" stroke="hsl(228.5, 77.2%, 51.5%)" stroke-width="1.5"></path>
        <path d="M1154.18 708.53L1154.18 708.53" stroke="hsl(228.5, 77.2%, 51.5%)" stroke-width="1.5"></path>
        <path d="M1154.18 708.53L1281.61 699.42" stroke="hsl(228.5, 77.2%, 51.5%)" stroke-width="1.5"></path>
        <path d="M1154.18 708.53L1001.72 656.32" stroke="hsl(228.5, 77.2%, 51.5%)" stroke-width="1.5"></path>
        <path d="M1154.18 708.53L1095.86 535.19" stroke="hsl(228.5, 77.2%, 51.5%)" stroke-width="1.5"></path>
        <path d="M1154.18 708.53L1287.89 547" stroke="hsl(228.5, 77.2%, 51.5%)" stroke-width="1.5"></path>
        <path d="M1154.18 708.53L1012.24 503.67" stroke="hsl(228.5, 77.2%, 51.5%)" stroke-width="1.5"></path>
        <path d="M1415.53 -87.21L1415.53 -87.21" stroke="hsl(228.5, 77.2%, 51.5%)" stroke-width="1.5"></path>
        <path d="M1415.53 -87.21L1256.53 -66.6" stroke="hsl(228.5, 77.2%, 51.5%)" stroke-width="1.5"></path>
        <path d="M1415.53 -87.21L1578.67 -89.65" stroke="hsl(228.5, 77.2%, 51.5%)" stroke-width="1.5"></path>
        <path d="M1415.53 -87.21L1452.34 98.02" stroke="hsl(228.5, 77.2%, 51.5%)" stroke-width="1.5"></path>
        <path d="M1578.67 -89.65L1578.67 -89.65" stroke="hsl(228.5, 77.2%, 51.5%)" stroke-width="1.5"></path>
        <path d="M1578.67 -89.65L1591.35 105.38" stroke="hsl(228.5, 77.2%, 51.5%)" stroke-width="1.5"></path>
        <path d="M1578.67 -89.65L1452.34 98.02" stroke="hsl(228.5, 77.2%, 51.5%)" stroke-width="1.5"></path>
        <path d="M1578.67 -89.65L1584.52 213.88" stroke="hsl(228.5, 77.2%, 51.5%)" stroke-width="1.5"></path>
        <path d="M1563.37 351.72L1563.37 351.72" stroke="hsl(228.5, 77.2%, 51.5%)" stroke-width="1.5"></path>
        <path d="M1563.37 351.72L1440.65 340.18" stroke="hsl(228.5, 77.2%, 51.5%)" stroke-width="1.5"></path>
        <path d="M1563.37 351.72L1584.52 213.88" stroke="hsl(228.5, 77.2%, 51.5%)" stroke-width="1.5"></path>
        <path d="M1563.37 351.72L1565.07 518.42" stroke="hsl(228.5, 77.2%, 51.5%)" stroke-width="1.5"></path>
        <path d="M1563.37 351.72L1393.99 207.75" stroke="hsl(228.5, 77.2%, 51.5%)" stroke-width="1.5"></path>
        <path d="M1563.37 351.72L1591.35 105.38" stroke="hsl(228.5, 77.2%, 51.5%)" stroke-width="1.5"></path>
        <path d="M-56.76 514.29L-56.76 514.29" stroke="hsl(228.5, 77.2%, 51.5%)" stroke-width="1.5"></path>
        <path d="M-56.76 514.29L59.47 519.91" stroke="hsl(228.5, 77.2%, 51.5%)" stroke-width="1.5"></path>
        <path d="M-56.76 514.29L-95.05 670.41" stroke="hsl(228.5, 77.2%, 51.5%)" stroke-width="1.5"></path>
        <path d="M-56.76 514.29L62.82 672.93" stroke="hsl(228.5, 77.2%, 51.5%)" stroke-width="1.5"></path>
        <path d="M-56.76 514.29L221.49 562" stroke="hsl(228.5, 77.2%, 51.5%)" stroke-width="1.5"></path>
        <path d="M-95.05 670.41L-95.05 670.41" stroke="hsl(228.5, 77.2%, 51.5%)" stroke-width="1.5"></path>
        <path d="M-95.05 670.41L62.82 672.93" stroke="hsl(228.5, 77.2%, 51.5%)" stroke-width="1.5"></path>
        <path d="M59.47 519.91L59.47 519.91" stroke="hsl(228.5, 77.2%, 51.5%)" stroke-width="1.5"></path>
        <path d="M59.47 519.91L221.49 562" stroke="hsl(228.5, 77.2%, 51.5%)" stroke-width="1.5"></path>
        <path d="M59.47 519.91L-95.05 670.41" stroke="hsl(228.5, 77.2%, 51.5%)" stroke-width="1.5"></path>
        <path d="M59.47 519.91L198.97 685.27" stroke="hsl(228.5, 77.2%, 51.5%)" stroke-width="1.5"></path>
        <path d="M221.49 562L221.49 562" stroke="hsl(228.5, 77.2%, 51.5%)" stroke-width="1.5"></path>
        <path d="M221.49 562L198.97 685.27" stroke="hsl(228.5, 77.2%, 51.5%)" stroke-width="1.5"></path>
        <path d="M221.49 562L382.02 535.46" stroke="hsl(228.5, 77.2%, 51.5%)" stroke-width="1.5"></path>
        <path d="M221.49 562L62.82 672.93" stroke="hsl(228.5, 77.2%, 51.5%)" stroke-width="1.5"></path>
        <path d="M198.97 685.27L198.97 685.27" stroke="hsl(228.5, 77.2%, 51.5%)" stroke-width="1.5"></path>
        <path d="M382.02 535.46L382.02 535.46" stroke="hsl(228.5, 77.2%, 51.5%)" stroke-width="1.5"></path>
        <path d="M382.02 535.46L524.7 537.79" stroke="hsl(228.5, 77.2%, 51.5%)" stroke-width="1.5"></path>
        <path d="M524.7 537.79L524.7 537.79" stroke="hsl(228.5, 77.2%, 51.5%)" stroke-width="1.5"></path>
        <path d="M524.7 537.79L534.83 657.07" stroke="hsl(228.5, 77.2%, 51.5%)" stroke-width="1.5"></path>
        <path d="M534.83 657.07L534.83 657.07" stroke="hsl(228.5, 77.2%, 51.5%)" stroke-width="1.5"></path>
        <path d="M680.68 652.43L680.68 652.43" stroke="hsl(228.5, 77.2%, 51.5%)" stroke-width="1.5"></path>
        <path d="M680.68 652.43L804.19 675.66" stroke="hsl(228.5, 77.2%, 51.5%)" stroke-width="1.5"></path>
        <path d="M680.68 652.43L534.83 657.07" stroke="hsl(228.5, 77.2%, 51.5%)" stroke-width="1.5"></path>
        <path d="M680.68 652.43L807.03 550.06" stroke="hsl(228.5, 77.2%, 51.5%)" stroke-width="1.5"></path>
        <path d="M802.04 391.61L802.04 391.61" stroke="hsl(228.5, 77.2%, 51.5%)" stroke-width="1.5"></path>
        <path d="M802.04 391.61L807.03 550.06" stroke="hsl(228.5, 77.2%, 51.5%)" stroke-width="1.5"></path>
        <path d="M802.04 391.61L1012.24 503.67" stroke="hsl(228.5, 77.2%, 51.5%)" stroke-width="1.5"></path>
        <path d="M807.03 550.06L807.03 550.06" stroke="hsl(228.5, 77.2%, 51.5%)" stroke-width="1.5"></path>
        <path d="M807.03 550.06L804.19 675.66" stroke="hsl(228.5, 77.2%, 51.5%)" stroke-width="1.5"></path>
        <path d="M807.03 550.06L1012.24 503.67" stroke="hsl(228.5, 77.2%, 51.5%)" stroke-width="1.5"></path>
        <path d="M807.03 550.06L1001.72 656.32" stroke="hsl(228.5, 77.2%, 51.5%)" stroke-width="1.5"></path>
        <path d="M807.03 550.06L984.47 387.57" stroke="hsl(228.5, 77.2%, 51.5%)" stroke-width="1.5"></path>
        <path d="M804.19 675.66L804.19 675.66" stroke="hsl(228.5, 77.2%, 51.5%)" stroke-width="1.5"></path>
        <path d="M804.19 675.66L1001.72 656.32" stroke="hsl(228.5, 77.2%, 51.5%)" stroke-width="1.5"></path>
        <path d="M1012.24 503.67L1012.24 503.67" stroke="hsl(228.5, 77.2%, 51.5%)" stroke-width="1.5"></path>
        <path d="M1012.24 503.67L1095.86 535.19" stroke="hsl(228.5, 77.2%, 51.5%)" stroke-width="1.5"></path>
        <path d="M1012.24 503.67L1001.72 656.32" stroke="hsl(228.5, 77.2%, 51.5%)" stroke-width="1.5"></path>
        <path d="M1012.24 503.67L1120.65 371" stroke="hsl(228.5, 77.2%, 51.5%)" stroke-width="1.5"></path>
        <path d="M1001.72 656.32L1001.72 656.32" stroke="hsl(228.5, 77.2%, 51.5%)" stroke-width="1.5"></path>
        <path d="M1001.72 656.32L1095.86 535.19" stroke="hsl(228.5, 77.2%, 51.5%)" stroke-width="1.5"></path>
        <path d="M1120.65 371L1120.65 371" stroke="hsl(228.5, 77.2%, 51.5%)" stroke-width="1.5"></path>
        <path d="M1120.65 371L1241.46 345.64" stroke="hsl(228.5, 77.2%, 51.5%)" stroke-width="1.5"></path>
        <path d="M1095.86 535.19L1095.86 535.19" stroke="hsl(228.5, 77.2%, 51.5%)" stroke-width="1.5"></path>
        <path d="M1095.86 535.19L1120.65 371" stroke="hsl(228.5, 77.2%, 51.5%)" stroke-width="1.5"></path>
        <path d="M1256.53 -66.6L1256.53 -66.6" stroke="hsl(228.5, 77.2%, 51.5%)" stroke-width="1.5"></path>
        <path d="M1256.53 -66.6L1264.72 83.75" stroke="hsl(228.5, 77.2%, 51.5%)" stroke-width="1.5"></path>
        <path d="M1256.53 -66.6L1452.34 98.02" stroke="hsl(228.5, 77.2%, 51.5%)" stroke-width="1.5"></path>
        <path d="M1264.72 83.75L1264.72 83.75" stroke="hsl(228.5, 77.2%, 51.5%)" stroke-width="1.5"></path>
        <path d="M1264.72 83.75L1393.99 207.75" stroke="hsl(228.5, 77.2%, 51.5%)" stroke-width="1.5"></path>
        <path d="M1241.46 345.64L1241.46 345.64" stroke="hsl(228.5, 77.2%, 51.5%)" stroke-width="1.5"></path>
        <path d="M1287.89 547L1287.89 547" stroke="hsl(228.5, 77.2%, 51.5%)" stroke-width="1.5"></path>
        <path d="M1287.89 547L1281.61 699.42" stroke="hsl(228.5, 77.2%, 51.5%)" stroke-width="1.5"></path>
        <path d="M1287.89 547L1416.51 659.52" stroke="hsl(228.5, 77.2%, 51.5%)" stroke-width="1.5"></path>
        <path d="M1281.61 699.42L1281.61 699.42" stroke="hsl(228.5, 77.2%, 51.5%)" stroke-width="1.5"></path>
        <path d="M1281.61 699.42L1416.51 659.52" stroke="hsl(228.5, 77.2%, 51.5%)" stroke-width="1.5"></path>
        <path d="M1281.61 699.42L1095.86 535.19" stroke="hsl(228.5, 77.2%, 51.5%)" stroke-width="1.5"></path>
        <path d="M1281.61 699.42L1538.1 692.95" stroke="hsl(228.5, 77.2%, 51.5%)" stroke-width="1.5"></path>
        <path d="M1452.34 98.02L1452.34 98.02" stroke="hsl(228.5, 77.2%, 51.5%)" stroke-width="1.5"></path>
        <path d="M1452.34 98.02L1393.99 207.75" stroke="hsl(228.5, 77.2%, 51.5%)" stroke-width="1.5"></path>
        <path d="M1452.34 98.02L1591.35 105.38" stroke="hsl(228.5, 77.2%, 51.5%)" stroke-width="1.5"></path>
        <path d="M1452.34 98.02L1584.52 213.88" stroke="hsl(228.5, 77.2%, 51.5%)" stroke-width="1.5"></path>
        <path d="M1452.34 98.02L1264.72 83.75" stroke="hsl(228.5, 77.2%, 51.5%)" stroke-width="1.5"></path>
        <path d="M1393.99 207.75L1393.99 207.75" stroke="hsl(228.5, 77.2%, 51.5%)" stroke-width="1.5"></path>
        <path d="M1393.99 207.75L1440.65 340.18" stroke="hsl(228.5, 77.2%, 51.5%)" stroke-width="1.5"></path>
        <path d="M1393.99 207.75L1584.52 213.88" stroke="hsl(228.5, 77.2%, 51.5%)" stroke-width="1.5"></path>
        <path d="M1393.99 207.75L1241.46 345.64" stroke="hsl(228.5, 77.2%, 51.5%)" stroke-width="1.5"></path>
        <path d="M1440.65 340.18L1440.65 340.18" stroke="hsl(228.5, 77.2%, 51.5%)" stroke-width="1.5"></path>
        <path d="M1440.65 340.18L1584.52 213.88" stroke="hsl(228.5, 77.2%, 51.5%)" stroke-width="1.5"></path>
        <path d="M1440.65 340.18L1241.46 345.64" stroke="hsl(228.5, 77.2%, 51.5%)" stroke-width="1.5"></path>
        <path d="M1440.65 340.18L1565.07 518.42" stroke="hsl(228.5, 77.2%, 51.5%)" stroke-width="1.5"></path>
        <path d="M1416.51 659.52L1416.51 659.52" stroke="hsl(228.5, 77.2%, 51.5%)" stroke-width="1.5"></path>
        <path d="M1416.51 659.52L1538.1 692.95" stroke="hsl(228.5, 77.2%, 51.5%)" stroke-width="1.5"></path>
        <path d="M1416.51 659.52L1565.07 518.42" stroke="hsl(228.5, 77.2%, 51.5%)" stroke-width="1.5"></path>
        <path d="M1591.35 105.38L1591.35 105.38" stroke="hsl(228.5, 77.2%, 51.5%)" stroke-width="1.5"></path>
        <path d="M1591.35 105.38L1584.52 213.88" stroke="hsl(228.5, 77.2%, 51.5%)" stroke-width="1.5"></path>
        <path d="M1584.52 213.88L1584.52 213.88" stroke="hsl(228.5, 77.2%, 51.5%)" stroke-width="1.5"></path>
        <path d="M1565.07 518.42L1565.07 518.42" stroke="hsl(228.5, 77.2%, 51.5%)" stroke-width="1.5"></path>
        <path d="M1565.07 518.42L1538.1 692.95" stroke="hsl(228.5, 77.2%, 51.5%)" stroke-width="1.5"></path>
        <path d="M1565.07 518.42L1287.89 547" stroke="hsl(228.5, 77.2%, 51.5%)" stroke-width="1.5"></path>
        <path d="M1565.07 518.42L1584.52 213.88" stroke="hsl(228.5, 77.2%, 51.5%)" stroke-width="1.5"></path>
        <path d="M1538.1 692.95L1538.1 692.95" stroke="hsl(228.5, 77.2%, 51.5%)" stroke-width="1.5"></path>
        <circle r="25" cx="62.82" cy="672.93" fill="url(#SvgjsRadialGradient1039)"></circle>
        <circle r="25" cx="409.77" cy="660.9" fill="url(#SvgjsRadialGradient1039)"></circle>
        <circle r="25" cx="523.72" cy="411.76" fill="url(#SvgjsRadialGradient1039)"></circle>
        <circle r="25" cx="984.47" cy="387.57" fill="url(#SvgjsRadialGradient1039)"></circle>
        <circle r="25" cx="1148.72" cy="229.43" fill="url(#SvgjsRadialGradient1039)"></circle>
        <circle r="25" cx="1154.18" cy="708.53" fill="url(#SvgjsRadialGradient1039)"></circle>
        <circle r="25" cx="1415.53" cy="-87.21" fill="url(#SvgjsRadialGradient1039)"></circle>
        <circle r="25" cx="1578.67" cy="-89.65" fill="url(#SvgjsRadialGradient1039)"></circle>
        <circle r="25" cx="1563.37" cy="351.72" fill="url(#SvgjsRadialGradient1039)"></circle>
        <circle r="5" cx="-56.76" cy="514.29" fill="#8b9ad9"></circle>
        <circle r="5" cx="-95.05" cy="670.41" fill="#8b9ad9"></circle>
        <circle r="5" cx="59.47" cy="519.91" fill="#8b9ad9"></circle>
        <circle r="5" cx="221.49" cy="562" fill="#8b9ad9"></circle>
        <circle r="5" cx="198.97" cy="685.27" fill="#8b9ad9"></circle>
        <circle r="5" cx="382.02" cy="535.46" fill="#8b9ad9"></circle>
        <circle r="5" cx="524.7" cy="537.79" fill="#8b9ad9"></circle>
        <circle r="5" cx="534.83" cy="657.07" fill="#8b9ad9"></circle>
        <circle r="5" cx="680.68" cy="652.43" fill="#8b9ad9"></circle>
        <circle r="5" cx="802.04" cy="391.61" fill="#8b9ad9"></circle>
        <circle r="5" cx="807.03" cy="550.06" fill="#8b9ad9"></circle>
        <circle r="5" cx="804.19" cy="675.66" fill="#8b9ad9"></circle>
        <circle r="5" cx="1012.24" cy="503.67" fill="#8b9ad9"></circle>
        <circle r="5" cx="1001.72" cy="656.32" fill="#8b9ad9"></circle>
        <circle r="5" cx="1120.65" cy="371" fill="#8b9ad9"></circle>
        <circle r="5" cx="1095.86" cy="535.19" fill="#8b9ad9"></circle>
        <circle r="5" cx="1256.53" cy="-66.6" fill="#8b9ad9"></circle>
        <circle r="5" cx="1264.72" cy="83.75" fill="#8b9ad9"></circle>
        <circle r="5" cx="1241.46" cy="345.64" fill="#8b9ad9"></circle>
        <circle r="5" cx="1287.89" cy="547" fill="#8b9ad9"></circle>
        <circle r="5" cx="1281.61" cy="699.42" fill="#8b9ad9"></circle>
        <circle r="5" cx="1452.34" cy="98.02" fill="#8b9ad9"></circle>
        <circle r="5" cx="1393.99" cy="207.75" fill="#8b9ad9"></circle>
        <circle r="5" cx="1440.65" cy="340.18" fill="#8b9ad9"></circle>
        <circle r="5" cx="1416.51" cy="659.52" fill="#8b9ad9"></circle>
        <circle r="5" cx="1591.35" cy="105.38" fill="#8b9ad9"></circle>
        <circle r="5" cx="1584.52" cy="213.88" fill="#8b9ad9"></circle>
        <circle r="5" cx="1565.07" cy="518.42" fill="#8b9ad9"></circle>
        <circle r="5" cx="1538.1" cy="692.95" fill="#8b9ad9"></circle>
    </g>
    <defs>
        <mask id="SvgjsMask1038">
            <rect width="1440" height="560" fill="#ffffff"></rect>
        </mask>
        <radialGradient id="SvgjsRadialGradient1039">
            <stop stop-color="#ffffff" offset="0.1"></stop>
            <stop stop-color="#1735b3" offset="0.2"></stop>
            <stop stop-color="rgba(23, 53, 179, 0)" offset="1"></stop>
        </radialGradient>
    </defs>
</svg>